<mxfile host="app.diagrams.net" modified="2022-05-30T02:41:32.813Z" agent="5.0 (Windows NT 10.0; Win64; x64) AppleWebKit/537.36 (KHTML, like Gecko) Chrome/101.0.4951.67 Safari/537.36" etag="ZAg49U0ha5o_FWZ6XSX_" version="18.1.3" type="github">
  <diagram id="3AFZbdL5D40gXu6ZhzM8" name="Page-1">
    <mxGraphModel dx="878" dy="991" grid="1" gridSize="10" guides="1" tooltips="1" connect="1" arrows="1" fold="1" page="1" pageScale="1" pageWidth="827" pageHeight="1169" math="0" shadow="0">
      <root>
        <mxCell id="0" />
        <mxCell id="1" parent="0" />
        <mxCell id="anqT4Qm5cuI5dzaFZgLQ-11" style="edgeStyle=orthogonalEdgeStyle;rounded=0;orthogonalLoop=1;jettySize=auto;html=1;exitX=0.5;exitY=1;exitDx=0;exitDy=0;entryX=0.5;entryY=0;entryDx=0;entryDy=0;fontSize=30;" edge="1" parent="1" source="anqT4Qm5cuI5dzaFZgLQ-6" target="anqT4Qm5cuI5dzaFZgLQ-7">
          <mxGeometry relative="1" as="geometry" />
        </mxCell>
        <mxCell id="anqT4Qm5cuI5dzaFZgLQ-6" value="&lt;font style=&quot;font-size: 30px;&quot;&gt;/&lt;/font&gt;" style="rounded=1;whiteSpace=wrap;html=1;fontSize=36;" vertex="1" parent="1">
          <mxGeometry x="305" y="80" width="120" height="60" as="geometry" />
        </mxCell>
        <mxCell id="anqT4Qm5cuI5dzaFZgLQ-7" value="&lt;font style=&quot;font-size: 30px;&quot;&gt;about&lt;/font&gt;" style="rounded=1;whiteSpace=wrap;html=1;fontSize=36;" vertex="1" parent="1">
          <mxGeometry x="305" y="220" width="120" height="60" as="geometry" />
        </mxCell>
        <mxCell id="anqT4Qm5cuI5dzaFZgLQ-8" value="&lt;font style=&quot;font-size: 30px;&quot;&gt;:lang&lt;/font&gt;" style="rounded=1;whiteSpace=wrap;html=1;fontSize=36;" vertex="1" parent="1">
          <mxGeometry x="100" y="220" width="120" height="60" as="geometry" />
        </mxCell>
        <mxCell id="anqT4Qm5cuI5dzaFZgLQ-9" value="&lt;font style=&quot;font-size: 30px;&quot;&gt;p&lt;/font&gt;" style="rounded=1;whiteSpace=wrap;html=1;fontSize=36;" vertex="1" parent="1">
          <mxGeometry x="550" y="220" width="120" height="60" as="geometry" />
        </mxCell>
        <mxCell id="anqT4Qm5cuI5dzaFZgLQ-10" value="" style="endArrow=classic;html=1;rounded=0;fontSize=36;exitX=0.5;exitY=1;exitDx=0;exitDy=0;entryX=0.5;entryY=0;entryDx=0;entryDy=0;" edge="1" parent="1" source="anqT4Qm5cuI5dzaFZgLQ-6" target="anqT4Qm5cuI5dzaFZgLQ-8">
          <mxGeometry width="50" height="50" relative="1" as="geometry">
            <mxPoint x="430" y="430" as="sourcePoint" />
            <mxPoint x="480" y="380" as="targetPoint" />
          </mxGeometry>
        </mxCell>
        <mxCell id="anqT4Qm5cuI5dzaFZgLQ-13" value="" style="endArrow=classic;html=1;rounded=0;fontSize=30;exitX=0.5;exitY=1;exitDx=0;exitDy=0;entryX=0.5;entryY=0;entryDx=0;entryDy=0;" edge="1" parent="1" source="anqT4Qm5cuI5dzaFZgLQ-6" target="anqT4Qm5cuI5dzaFZgLQ-9">
          <mxGeometry width="50" height="50" relative="1" as="geometry">
            <mxPoint x="430" y="430" as="sourcePoint" />
            <mxPoint x="480" y="380" as="targetPoint" />
          </mxGeometry>
        </mxCell>
        <mxCell id="anqT4Qm5cuI5dzaFZgLQ-15" value="&lt;font style=&quot;font-size: 30px;&quot;&gt;blog&lt;/font&gt;" style="rounded=1;whiteSpace=wrap;html=1;fontSize=36;" vertex="1" parent="1">
          <mxGeometry x="470" y="360" width="120" height="60" as="geometry" />
        </mxCell>
        <mxCell id="anqT4Qm5cuI5dzaFZgLQ-16" value="&lt;span style=&quot;font-size: 30px;&quot;&gt;*filepath&lt;/span&gt;" style="rounded=1;whiteSpace=wrap;html=1;fontSize=36;" vertex="1" parent="1">
          <mxGeometry x="650" y="360" width="120" height="60" as="geometry" />
        </mxCell>
        <mxCell id="anqT4Qm5cuI5dzaFZgLQ-18" value="" style="endArrow=classic;html=1;rounded=0;fontSize=30;entryX=0.5;entryY=0;entryDx=0;entryDy=0;" edge="1" parent="1" target="anqT4Qm5cuI5dzaFZgLQ-15">
          <mxGeometry width="50" height="50" relative="1" as="geometry">
            <mxPoint x="610" y="280" as="sourcePoint" />
            <mxPoint x="630" y="280" as="targetPoint" />
          </mxGeometry>
        </mxCell>
        <mxCell id="anqT4Qm5cuI5dzaFZgLQ-19" value="" style="endArrow=classic;html=1;rounded=0;fontSize=30;entryX=0.5;entryY=0;entryDx=0;entryDy=0;exitX=0.5;exitY=1;exitDx=0;exitDy=0;" edge="1" parent="1" source="anqT4Qm5cuI5dzaFZgLQ-9" target="anqT4Qm5cuI5dzaFZgLQ-16">
          <mxGeometry width="50" height="50" relative="1" as="geometry">
            <mxPoint x="630" y="350" as="sourcePoint" />
            <mxPoint x="680" y="300" as="targetPoint" />
          </mxGeometry>
        </mxCell>
        <mxCell id="anqT4Qm5cuI5dzaFZgLQ-21" value="&lt;span style=&quot;font-size: 30px;&quot;&gt;intro&lt;/span&gt;" style="rounded=1;whiteSpace=wrap;html=1;fontSize=36;" vertex="1" parent="1">
          <mxGeometry x="30" y="360" width="120" height="60" as="geometry" />
        </mxCell>
        <mxCell id="anqT4Qm5cuI5dzaFZgLQ-22" value="&lt;span style=&quot;font-size: 30px;&quot;&gt;tutorial&lt;/span&gt;" style="rounded=1;whiteSpace=wrap;html=1;fontSize=36;" vertex="1" parent="1">
          <mxGeometry x="200" y="360" width="120" height="60" as="geometry" />
        </mxCell>
        <mxCell id="anqT4Qm5cuI5dzaFZgLQ-23" value="" style="endArrow=classic;html=1;rounded=0;fontSize=30;exitX=0.5;exitY=1;exitDx=0;exitDy=0;entryX=0.5;entryY=0;entryDx=0;entryDy=0;" edge="1" parent="1" source="anqT4Qm5cuI5dzaFZgLQ-8" target="anqT4Qm5cuI5dzaFZgLQ-21">
          <mxGeometry width="50" height="50" relative="1" as="geometry">
            <mxPoint x="350" y="430" as="sourcePoint" />
            <mxPoint x="400" y="380" as="targetPoint" />
          </mxGeometry>
        </mxCell>
        <mxCell id="anqT4Qm5cuI5dzaFZgLQ-24" value="" style="endArrow=classic;html=1;rounded=0;fontSize=30;exitX=0.5;exitY=1;exitDx=0;exitDy=0;entryX=0.5;entryY=0;entryDx=0;entryDy=0;" edge="1" parent="1" source="anqT4Qm5cuI5dzaFZgLQ-8" target="anqT4Qm5cuI5dzaFZgLQ-22">
          <mxGeometry width="50" height="50" relative="1" as="geometry">
            <mxPoint x="350" y="430" as="sourcePoint" />
            <mxPoint x="400" y="380" as="targetPoint" />
          </mxGeometry>
        </mxCell>
      </root>
    </mxGraphModel>
  </diagram>
</mxfile>
